<svg xmlns="http://www.w3.org/2000/svg" width="1520" height="820" viewBox="0 0 1520 820">
  <defs><marker id="arrow" markerWidth="10" markerHeight="10" refX="9" refY="3" orient="auto"><path d="M0,0 L0,6 L9,3 z" fill="#1F4E78"/></marker></defs>
  <rect width="1520" height="820" fill="#FFFFFF"/>
  <text x="760" y="45" text-anchor="middle" font-size="24" font-weight="700" fill="#1F4E78">AS-IS: текущий процесс обработки заявки</text>
  <rect x="20" y="80" width="1480" height="120" fill="#F7FAFC" stroke="#B7C9DA"/><rect x="20" y="80" width="34" height="120" fill="#E6EEF6" stroke="#B7C9DA"/><text x="42" y="140" text-anchor="middle" transform="rotate(-90 42 140)" font-size="13" font-weight="700" fill="#1F2933">Инициатор</text><rect x="20" y="200" width="1480" height="170" fill="#EEF4FA" stroke="#B7C9DA"/><rect x="20" y="200" width="34" height="170" fill="#E6EEF6" stroke="#B7C9DA"/><text x="42" y="285" text-anchor="middle" transform="rotate(-90 42 285)" font-size="13" font-weight="700" fill="#1F2933">Менеджер</text><rect x="20" y="370" width="1480" height="140" fill="#F7FAFC" stroke="#B7C9DA"/><rect x="20" y="370" width="34" height="140" fill="#E6EEF6" stroke="#B7C9DA"/><text x="42" y="440" text-anchor="middle" transform="rotate(-90 42 440)" font-size="13" font-weight="700" fill="#1F2933">1С</text><rect x="20" y="510" width="1480" height="150" fill="#EEF4FA" stroke="#B7C9DA"/><rect x="20" y="510" width="34" height="150" fill="#E6EEF6" stroke="#B7C9DA"/><text x="42" y="585" text-anchor="middle" transform="rotate(-90 42 585)" font-size="13" font-weight="700" fill="#1F2933">Руководитель</text><rect x="20" y="660" width="1480" height="120" fill="#F7FAFC" stroke="#B7C9DA"/><rect x="20" y="660" width="34" height="120" fill="#E6EEF6" stroke="#B7C9DA"/><text x="42" y="720" text-anchor="middle" transform="rotate(-90 42 720)" font-size="13" font-weight="700" fill="#1F2933">Исполнитель</text>
  <path d="M 190 145 L 215 145 L 215 285 L 240 285" fill="none" stroke="#1F4E78" stroke-width="2" marker-end="url(#arrow)"/>
  <path d="M 410 285 L 435 285 L 435 285 L 460 285" fill="none" stroke="#1F4E78" stroke-width="2" marker-end="url(#arrow)"/>
  <path d="M 620 285 L 645 285 L 645 285 L 670 285" fill="none" stroke="#1F4E78" stroke-width="2" marker-end="url(#arrow)"/>
  <path d="M 790 285 L 720 285 L 720 150 L 650 150" fill="none" stroke="#1F4E78" stroke-width="2" marker-end="url(#arrow)"/><text x="720" y="211.5" text-anchor="middle" font-size="12" fill="#1F4E78">Нет</text>
  <path d="M 830 150 L 645 150 L 645 285 L 460 285" fill="none" stroke="#1F4E78" stroke-width="2" marker-end="url(#arrow)"/>
  <path d="M 790 285 L 825 285 L 825 440 L 860 440" fill="none" stroke="#1F4E78" stroke-width="2" marker-end="url(#arrow)"/><text x="825" y="356.5" text-anchor="middle" font-size="12" fill="#1F4E78">Да</text>
  <path d="M 1040 440 L 1065 440 L 1065 590 L 1090 590" fill="none" stroke="#1F4E78" stroke-width="2" marker-end="url(#arrow)"/>
  <path d="M 1260 590 L 1280 590 L 1280 590 L 1300 590" fill="none" stroke="#1F4E78" stroke-width="2" marker-end="url(#arrow)"/>
  <path d="M 1410 590 L 1245 590 L 1245 285 L 1080 285" fill="none" stroke="#1F4E78" stroke-width="2" marker-end="url(#arrow)"/><text x="1245" y="431.5" text-anchor="middle" font-size="12" fill="#1F4E78">Нет</text>
  <path d="M 1250 285 L 855 285 L 855 285 L 460 285" fill="none" stroke="#1F4E78" stroke-width="2" marker-end="url(#arrow)"/>
  <path d="M 1410 590 L 1340 590 L 1340 730 L 1270 730" fill="none" stroke="#1F4E78" stroke-width="2" marker-end="url(#arrow)"/><text x="1340" y="654" text-anchor="middle" font-size="12" fill="#1F4E78">Да</text>
  <path d="M 1440 730 L 1245 730 L 1245 730 L 1050 730" fill="none" stroke="#1F4E78" stroke-width="2" marker-end="url(#arrow)"/>
  <path d="M 1220 730 L 1035 730 L 1035 730 L 850 730" fill="none" stroke="#1F4E78" stroke-width="2" marker-end="url(#arrow)"/>
  <ellipse cx="130" cy="145" rx="60" ry="30" fill="#D9EAD3" stroke="#70AD47" stroke-width="2"/><text text-anchor="middle" font-size="13" fill="#1F2933"><tspan x="130" y="137">Заявка поступила по</tspan><tspan x="130" y="154">почте или в чат</tspan></text>
  <rect x="240" y="250" width="170" height="70" rx="10" fill="#FCE4D6" stroke="#F4B183" stroke-width="2"/><text text-anchor="middle" font-size="13" fill="#1F2933"><tspan x="325" y="277">Менеджер вручную</tspan><tspan x="325" y="294">принимает заявку</tspan></text>
  <rect x="460" y="250" width="160" height="70" rx="10" fill="#FCE4D6" stroke="#F4B183" stroke-width="2"/><text text-anchor="middle" font-size="13" fill="#1F2933"><tspan x="540" y="277">Проверка данных</tspan><tspan x="540" y="294">вручную</tspan></text>
  <polygon points="730,240 790,285 730,330 670,285" fill="#F2F2F2" stroke="#1F4E78" stroke-width="2"/><text text-anchor="middle" font-size="12" fill="#1F2933"><tspan x="730" y="285">Данных достаточно?</tspan></text>
  <rect x="650" y="115" width="180" height="70" rx="10" fill="#FCE4D6" stroke="#F4B183" stroke-width="2"/><text text-anchor="middle" font-size="13" fill="#1F2933"><tspan x="740" y="142">Запросить уточнение у</tspan><tspan x="740" y="159">инициатора</tspan></text>
  <rect x="860" y="405" width="180" height="70" rx="10" fill="#FCE4D6" stroke="#F4B183" stroke-width="2"/><text text-anchor="middle" font-size="13" fill="#1F2933"><tspan x="950" y="432">Создать документ в 1С</tspan><tspan x="950" y="449">вручную</tspan></text>
  <rect x="1090" y="555" width="170" height="70" rx="10" fill="#FCE4D6" stroke="#F4B183" stroke-width="2"/><text text-anchor="middle" font-size="13" fill="#1F2933"><tspan x="1175" y="582">Согласование вне</tspan><tspan x="1175" y="599">системы</tspan></text>
  <polygon points="1355,545 1410,590 1355,635 1300,590" fill="#F2F2F2" stroke="#1F4E78" stroke-width="2"/><text text-anchor="middle" font-size="12" fill="#1F2933"><tspan x="1355" y="590">Согласовано?</tspan></text>
  <rect x="1080" y="250" width="170" height="70" rx="10" fill="#FCE4D6" stroke="#F4B183" stroke-width="2"/><text text-anchor="middle" font-size="13" fill="#1F2933"><tspan x="1165" y="285">Вернуть на доработку</tspan></text>
  <rect x="1270" y="700" width="170" height="60" rx="10" fill="#FCE4D6" stroke="#F4B183" stroke-width="2"/><text text-anchor="middle" font-size="13" fill="#1F2933"><tspan x="1355" y="730">Передать исполнителю</tspan></text>
  <rect x="1050" y="700" width="170" height="60" rx="10" fill="#FCE4D6" stroke="#F4B183" stroke-width="2"/><text text-anchor="middle" font-size="13" fill="#1F2933"><tspan x="1135" y="722">Закрыть заявку и</tspan><tspan x="1135" y="739">статус вручную</tspan></text>
  <ellipse cx="910" cy="730" rx="60" ry="30" fill="#F4CCCC" stroke="#C00000" stroke-width="2"/><text text-anchor="middle" font-size="13" fill="#1F2933"><tspan x="910" y="730">Заявка закрыта</tspan></text>
  <rect x="250" y="95" width="210" height="80" rx="4" fill="#F4CCCC" stroke="#C00000" stroke-width="2"/><text text-anchor="middle" font-size="12" fill="#1F2933"><tspan x="355" y="119">Проблема: нет единого</tspan><tspan x="355" y="136">канала и обязательных</tspan><tspan x="355" y="153">полей</tspan></text>
  <rect x="970" y="385" width="230" height="80" rx="4" fill="#F4CCCC" stroke="#C00000" stroke-width="2"/><text text-anchor="middle" font-size="12" fill="#1F2933"><tspan x="1085" y="409">Проблема: статусы и</tspan><tspan x="1085" y="426">сроки контролируются</tspan><tspan x="1085" y="443">вручную</tspan></text>
</svg>
