<svg xmlns="http://www.w3.org/2000/svg" width="1520" height="820" viewBox="0 0 1520 820">
  <defs><marker id="arrow" markerWidth="10" markerHeight="10" refX="9" refY="3" orient="auto"><path d="M0,0 L0,6 L9,3 z" fill="#1F4E78"/></marker></defs>
  <rect width="1520" height="820" fill="#FFFFFF"/>
  <text x="760" y="45" text-anchor="middle" font-size="24" font-weight="700" fill="#1F4E78">TO-BE: целевой процесс обработки заявки</text>
  <rect x="20" y="80" width="1480" height="120" fill="#F7FAFC" stroke="#B7C9DA"/><rect x="20" y="80" width="34" height="120" fill="#E6EEF6" stroke="#B7C9DA"/><text x="42" y="140" text-anchor="middle" transform="rotate(-90 42 140)" font-size="13" font-weight="700" fill="#1F2933">Инициатор</text><rect x="20" y="200" width="1480" height="170" fill="#EEF4FA" stroke="#B7C9DA"/><rect x="20" y="200" width="34" height="170" fill="#E6EEF6" stroke="#B7C9DA"/><text x="42" y="285" text-anchor="middle" transform="rotate(-90 42 285)" font-size="13" font-weight="700" fill="#1F2933">Менеджер</text><rect x="20" y="370" width="1480" height="140" fill="#F7FAFC" stroke="#B7C9DA"/><rect x="20" y="370" width="34" height="140" fill="#E6EEF6" stroke="#B7C9DA"/><text x="42" y="440" text-anchor="middle" transform="rotate(-90 42 440)" font-size="13" font-weight="700" fill="#1F2933">1С</text><rect x="20" y="510" width="1480" height="150" fill="#EEF4FA" stroke="#B7C9DA"/><rect x="20" y="510" width="34" height="150" fill="#E6EEF6" stroke="#B7C9DA"/><text x="42" y="585" text-anchor="middle" transform="rotate(-90 42 585)" font-size="13" font-weight="700" fill="#1F2933">Руководитель</text><rect x="20" y="660" width="1480" height="120" fill="#F7FAFC" stroke="#B7C9DA"/><rect x="20" y="660" width="34" height="120" fill="#E6EEF6" stroke="#B7C9DA"/><text x="42" y="720" text-anchor="middle" transform="rotate(-90 42 720)" font-size="13" font-weight="700" fill="#1F2933">Исполнитель</text>
  <path d="M 220 145 L 245 145 L 245 440 L 270 440" fill="none" stroke="#1F4E78" stroke-width="2" marker-end="url(#arrow)"/>
  <path d="M 450 440 L 475 440 L 475 440 L 500 440" fill="none" stroke="#1F4E78" stroke-width="2" marker-end="url(#arrow)"/>
  <path d="M 620 440 L 560 440 L 560 150 L 500 150" fill="none" stroke="#1F4E78" stroke-width="2" marker-end="url(#arrow)"/><text x="560" y="289" text-anchor="middle" font-size="12" fill="#1F4E78">Нет</text>
  <path d="M 680 150 L 375 150 L 375 145 L 70 145" fill="none" stroke="#1F4E78" stroke-width="2" marker-end="url(#arrow)"/>
  <path d="M 620 440 L 650 440 L 650 440 L 680 440" fill="none" stroke="#1F4E78" stroke-width="2" marker-end="url(#arrow)"/><text x="650" y="434" text-anchor="middle" font-size="12" fill="#1F4E78">Да</text>
  <path d="M 870 440 L 895 440 L 895 440 L 920 440" fill="none" stroke="#1F4E78" stroke-width="2" marker-end="url(#arrow)"/>
  <path d="M 1110 440 L 1135 440 L 1135 285 L 1160 285" fill="none" stroke="#1F4E78" stroke-width="2" marker-end="url(#arrow)"/>
  <path d="M 1110 440 L 1015 440 L 1015 570 L 920 570" fill="none" stroke="#1F4E78" stroke-width="2" marker-end="url(#arrow)"/>
  <path d="M 1110 440 L 905 440 L 905 570 L 700 570" fill="none" stroke="#1F4E78" stroke-width="2" marker-end="url(#arrow)"/>
  <path d="M 1340 285 L 1250 285 L 1250 590 L 1160 590" fill="none" stroke="#1F4E78" stroke-width="2" marker-end="url(#arrow)"/>
  <path d="M 1290 590 L 1320 590 L 1320 590 L 1350 590" fill="none" stroke="#1F4E78" stroke-width="2" marker-end="url(#arrow)"/><text x="1320" y="584" text-anchor="middle" font-size="12" fill="#1F4E78">Да</text>
  <path d="M 1290 590 L 1305 590 L 1305 730 L 1320 730" fill="none" stroke="#1F4E78" stroke-width="2" marker-end="url(#arrow)"/><text x="1305" y="654" text-anchor="middle" font-size="12" fill="#1F4E78">Нет</text>
  <path d="M 1520 590 L 1420 590 L 1420 730 L 1320 730" fill="none" stroke="#1F4E78" stroke-width="2" marker-end="url(#arrow)"/>
  <path d="M 1500 730 L 1280 730 L 1280 730 L 1060 730" fill="none" stroke="#1F4E78" stroke-width="2" marker-end="url(#arrow)"/>
  <path d="M 1270 730 L 1060 730 L 1060 730 L 850 730" fill="none" stroke="#1F4E78" stroke-width="2" marker-end="url(#arrow)"/>
  <ellipse cx="145" cy="145" rx="75" ry="30" fill="#D9EAD3" stroke="#70AD47" stroke-width="2"/><text text-anchor="middle" font-size="13" fill="#1F2933"><tspan x="145" y="137">Инициатор заполняет</tspan><tspan x="145" y="154">единую форму</tspan></text>
  <rect x="270" y="405" width="180" height="70" rx="10" fill="#D9EAD3" stroke="#70AD47" stroke-width="2"/><text text-anchor="middle" font-size="13" fill="#1F2933"><tspan x="360" y="432">1С проверяет</tspan><tspan x="360" y="449">обязательные поля</tspan></text>
  <polygon points="560,395 620,440 560,485 500,440" fill="#F2F2F2" stroke="#1F4E78" stroke-width="2"/><text text-anchor="middle" font-size="12" fill="#1F2933"><tspan x="560" y="440">Данные корректны?</tspan></text>
  <rect x="500" y="115" width="180" height="70" rx="10" fill="#D9EAD3" stroke="#70AD47" stroke-width="2"/><text text-anchor="middle" font-size="13" fill="#1F2933"><tspan x="590" y="142">Вернуть на</tspan><tspan x="590" y="159">дозаполнение</tspan></text>
  <rect x="680" y="405" width="190" height="70" rx="10" fill="#D9EAD3" stroke="#70AD47" stroke-width="2"/><text text-anchor="middle" font-size="13" fill="#1F2933"><tspan x="775" y="432">Создать заявку со</tspan><tspan x="775" y="449">статусом Новая</tspan></text>
  <rect x="920" y="405" width="190" height="70" rx="10" fill="#D9EAD3" stroke="#70AD47" stroke-width="2"/><text text-anchor="middle" font-size="13" fill="#1F2933"><tspan x="1015" y="432">Назначить</tspan><tspan x="1015" y="449">ответственного и SLA</tspan></text>
  <rect x="1160" y="250" width="180" height="70" rx="10" fill="#DDEBF7" stroke="#5B9BD5" stroke-width="2"/><text text-anchor="middle" font-size="13" fill="#1F2933"><tspan x="1250" y="277">Менеджер принимает в</tspan><tspan x="1250" y="294">работу</tspan></text>
  <polygon points="1225,545 1290,590 1225,635 1160,590" fill="#F2F2F2" stroke="#1F4E78" stroke-width="2"/><text text-anchor="middle" font-size="12" fill="#1F2933"><tspan x="1225" y="590">Нужно согласование?</tspan></text>
  <rect x="1350" y="555" width="170" height="70" rx="10" fill="#DDEBF7" stroke="#5B9BD5" stroke-width="2"/><text text-anchor="middle" font-size="13" fill="#1F2933"><tspan x="1435" y="582">Руководитель согласует</tspan><tspan x="1435" y="599">в 1С</tspan></text>
  <rect x="1320" y="700" width="180" height="60" rx="10" fill="#DDEBF7" stroke="#5B9BD5" stroke-width="2"/><text text-anchor="middle" font-size="13" fill="#1F2933"><tspan x="1410" y="722">Исполнитель выполняет</tspan><tspan x="1410" y="739">заявку</tspan></text>
  <rect x="1060" y="700" width="210" height="60" rx="10" fill="#D9EAD3" stroke="#70AD47" stroke-width="2"/><text text-anchor="middle" font-size="13" fill="#1F2933"><tspan x="1165" y="722">1С фиксирует закрытие</tspan><tspan x="1165" y="739">и обновляет отчет</tspan></text>
  <ellipse cx="910" cy="730" rx="60" ry="30" fill="#F4CCCC" stroke="#C00000" stroke-width="2"/><text text-anchor="middle" font-size="13" fill="#1F2933"><tspan x="910" y="730">Заявка закрыта</tspan></text>
  <rect x="920" y="535" width="190" height="70" rx="10" fill="#D9EAD3" stroke="#70AD47" stroke-width="2"/><text text-anchor="middle" font-size="13" fill="#1F2933"><tspan x="1015" y="562">Уведомления о новых и</tspan><tspan x="1015" y="579">просроченных заявках</tspan></text>
  <rect x="700" y="535" width="190" height="70" rx="10" fill="#D9EAD3" stroke="#70AD47" stroke-width="2"/><text text-anchor="middle" font-size="13" fill="#1F2933"><tspan x="795" y="554">Отчет руководителя:</tspan><tspan x="795" y="571">статусы, SLA,</tspan><tspan x="795" y="588">ответственные</tspan></text>
</svg>
