<svg xmlns="http://www.w3.org/2000/svg" width="960" height="540" viewBox="0 0 960 540">
  <style>
    text{font-family:Inter,Segoe UI,Arial,sans-serif;letter-spacing:0}
  </style>
  <rect width="960" height="540" fill="#F8FAFC"/>
  <rect x="24" y="20" width="912" height="500" rx="10" fill="#FFFFFF" stroke="#CBD5E1"/>
  <text x="48" y="62" font-size="24" font-weight="750" fill="#1E3A5F">Выручка по месяцам</text>
  
  <text x="48" y="92" font-size="14" fill="#64748B">млн руб.</text>
  <path d="M 90 410 L 870 410" stroke="#E2E8F0"/>
<path d="M 90 340 L 870 340" stroke="#E2E8F0"/>
<path d="M 90 270 L 870 270" stroke="#E2E8F0"/>
<path d="M 90 200 L 870 200" stroke="#E2E8F0"/>
<path d="M 90 130 L 870 130" stroke="#E2E8F0"/>
  <path d="M 90 130 L 90 410 L 870 410" fill="none" stroke="#CBD5E1"/>
  <path d="M 90.0 130.0 L 246.0 174.1 L 402.0 145.7 L 558.0 147.9 L 714.0 170.5 L 870.0 141.5" fill="none" stroke="#24527A" stroke-width="3.2"/>
  <circle cx="90.0" cy="130.0" r="5" fill="#FFFFFF" stroke="#24527A" stroke-width="3"/><text x="90.0" y="116.0" text-anchor="middle" font-size="12" fill="#334155">114.8</text>
<circle cx="246.0" cy="174.1" r="5" fill="#FFFFFF" stroke="#24527A" stroke-width="3"/><text x="246.0" y="160.1" text-anchor="middle" font-size="12" fill="#334155">96.7</text>
<circle cx="402.0" cy="145.7" r="5" fill="#FFFFFF" stroke="#24527A" stroke-width="3"/><text x="402.0" y="131.7" text-anchor="middle" font-size="12" fill="#334155">108.3</text>
<circle cx="558.0" cy="147.9" r="5" fill="#FFFFFF" stroke="#24527A" stroke-width="3"/><text x="558.0" y="133.9" text-anchor="middle" font-size="12" fill="#334155">107.4</text>
<circle cx="714.0" cy="170.5" r="5" fill="#FFFFFF" stroke="#24527A" stroke-width="3"/><text x="714.0" y="156.5" text-anchor="middle" font-size="12" fill="#334155">98.2</text>
<circle cx="870.0" cy="141.5" r="5" fill="#FFFFFF" stroke="#24527A" stroke-width="3"/><text x="870.0" y="127.5" text-anchor="middle" font-size="12" fill="#334155">110.1</text>
  <text x="90.0" y="448" text-anchor="middle" font-size="12" fill="#64748B">2026-01</text><text x="246.0" y="448" text-anchor="middle" font-size="12" fill="#64748B">2026-02</text><text x="402.0" y="448" text-anchor="middle" font-size="12" fill="#64748B">2026-03</text><text x="558.0" y="448" text-anchor="middle" font-size="12" fill="#64748B">2026-04</text><text x="714.0" y="448" text-anchor="middle" font-size="12" fill="#64748B">2026-05</text><text x="870.0" y="448" text-anchor="middle" font-size="12" fill="#64748B">2026-06</text>

</svg>
