<svg xmlns="http://www.w3.org/2000/svg" width="960" height="540" viewBox="0 0 960 540">
  <style>
    text{font-family:Inter,Segoe UI,Arial,sans-serif;letter-spacing:0}
  </style>
  <rect width="960" height="540" fill="#F8FAFC"/>
  <rect x="24" y="20" width="912" height="500" rx="10" fill="#FFFFFF" stroke="#CBD5E1"/>
  <text x="48" y="62" font-size="24" font-weight="750" fill="#1E3A5F">Средняя оценка по продуктам</text>
  <text x="312" y="155" text-anchor="end" font-size="14" fill="#172033">Редуктор R-8</text><rect x="330" y="130" width="492.2" height="38" rx="6" fill="#2B6CB0"/><text x="834.2" y="155" font-size="14" font-weight="650" fill="#334155">4.1</text>
  <text x="312" y="215" text-anchor="end" font-size="14" fill="#172033">Компрессор А-120</text><rect x="330" y="190" width="495.8" height="38" rx="6" fill="#2B6CB0"/><text x="837.8" y="215" font-size="14" font-weight="650" fill="#334155">4.1</text>
  <text x="312" y="275" text-anchor="end" font-size="14" fill="#172033">Датчик D-17</text><rect x="330" y="250" width="500.7" height="38" rx="6" fill="#2B6CB0"/><text x="842.7" y="275" font-size="14" font-weight="650" fill="#334155">4.1</text>
  <text x="312" y="335" text-anchor="end" font-size="14" fill="#172033">Контроллер C-9</text><rect x="330" y="310" width="503.1" height="38" rx="6" fill="#2B6CB0"/><text x="845.1" y="335" font-size="14" font-weight="650" fill="#334155">4.2</text>
  <text x="312" y="395" text-anchor="end" font-size="14" fill="#172033">Фильтр F-30</text><rect x="330" y="370" width="515.2" height="38" rx="6" fill="#2B6CB0"/><text x="857.2" y="395" font-size="14" font-weight="650" fill="#334155">4.3</text>
  <text x="312" y="455" text-anchor="end" font-size="14" fill="#172033">Насос Н-45</text><rect x="330" y="430" width="516.4" height="38" rx="6" fill="#2B6CB0"/><text x="858.4" y="455" font-size="14" font-weight="650" fill="#334155">4.3</text>
  <text x="312" y="515" text-anchor="end" font-size="14" fill="#172033">Электродвигатель E-55</text><rect x="330" y="490" width="518.8" height="38" rx="6" fill="#2B6CB0"/><text x="860.8" y="515" font-size="14" font-weight="650" fill="#334155">4.3</text>
  <text x="312" y="575" text-anchor="end" font-size="14" fill="#172033">Клапан V-12</text><rect x="330" y="550" width="520.0" height="38" rx="6" fill="#2B6CB0"/><text x="862.0" y="575" font-size="14" font-weight="650" fill="#334155">4.3</text>
</svg>
