<svg xmlns="http://www.w3.org/2000/svg" width="960" height="540" viewBox="0 0 960 540">
  <style>
    text{font-family:Inter,Segoe UI,Arial,sans-serif;letter-spacing:0}
  </style>
  <rect width="960" height="540" fill="#F8FAFC"/>
  <rect x="24" y="20" width="912" height="500" rx="10" fill="#FFFFFF" stroke="#CBD5E1"/>
  <text x="48" y="62" font-size="24" font-weight="750" fill="#1E3A5F">Основные причины негативной обратной связи</text>
  <text x="312" y="155" text-anchor="end" font-size="14" fill="#172033">доставка</text><rect x="330" y="130" width="281.8" height="38" rx="6" fill="#C05621"/><text x="623.8" y="155" font-size="14" font-weight="650" fill="#334155">142.0</text>
  <text x="312" y="215" text-anchor="end" font-size="14" fill="#172033">совместимость</text><rect x="330" y="190" width="339.4" height="38" rx="6" fill="#C05621"/><text x="681.4" y="215" font-size="14" font-weight="650" fill="#334155">171.0</text>
  <text x="312" y="275" text-anchor="end" font-size="14" fill="#172033">неполное описание</text><rect x="330" y="250" width="345.3" height="38" rx="6" fill="#C05621"/><text x="687.3" y="275" font-size="14" font-weight="650" fill="#334155">174.0</text>
  <text x="312" y="335" text-anchor="end" font-size="14" fill="#172033">цена</text><rect x="330" y="310" width="349.3" height="38" rx="6" fill="#C05621"/><text x="691.3" y="335" font-size="14" font-weight="650" fill="#334155">176.0</text>
  <text x="312" y="395" text-anchor="end" font-size="14" fill="#172033">комплектация</text><rect x="330" y="370" width="383.1" height="38" rx="6" fill="#C05621"/><text x="725.1" y="395" font-size="14" font-weight="650" fill="#334155">193.0</text>
  <text x="312" y="455" text-anchor="end" font-size="14" fill="#172033">документы</text><rect x="330" y="430" width="385.0" height="38" rx="6" fill="#C05621"/><text x="727.0" y="455" font-size="14" font-weight="650" fill="#334155">194.0</text>
  <text x="312" y="515" text-anchor="end" font-size="14" fill="#172033">срок поставки</text><rect x="330" y="490" width="520.0" height="38" rx="6" fill="#C05621"/><text x="862.0" y="515" font-size="14" font-weight="650" fill="#334155">262.0</text>
</svg>
