<svg xmlns="http://www.w3.org/2000/svg" width="960" height="540" viewBox="0 0 960 540">
  <style>
    text{font-family:Inter,Segoe UI,Arial,sans-serif;letter-spacing:0}
  </style>
  <rect width="960" height="540" fill="#F8FAFC"/>
  <rect x="24" y="20" width="912" height="500" rx="10" fill="#FFFFFF" stroke="#CBD5E1"/>
  <text x="48" y="62" font-size="24" font-weight="750" fill="#1E3A5F">Матрица приоритетов: проблемы vs маржинальность</text>
  
  <path d="M 110 110 L 110 430 L 840 430" fill="none" stroke="#CBD5E1"/>
  <text x="475.0" y="482" text-anchor="middle" font-size="14" fill="#64748B">доля проблемных заказов</text>
  <text x="38" y="275" text-anchor="middle" transform="rotate(-90 38 275)" font-size="14" fill="#64748B">маржинальность</text>
  <circle cx="670.2" cy="130.0" r="14.2" fill="#2F855A" fill-opacity="0.72" stroke="#1E3A5F" stroke-width="2"/><text x="692.5" y="135.0" font-size="12" fill="#172033">Датчик D-17</text><circle cx="553.9" cy="279.8" r="15.3" fill="#2F855A" fill-opacity="0.72" stroke="#1E3A5F" stroke-width="2"/><text x="577.2" y="284.8" font-size="12" fill="#172033">Клапан V-12</text><circle cx="780.0" cy="302.6" r="40.0" fill="#2F855A" fill-opacity="0.72" stroke="#1E3A5F" stroke-width="2"/><text x="828.0" y="307.6" font-size="12" fill="#172033">Компрессор А-120</text><circle cx="715.9" cy="173.6" r="17.4" fill="#2F855A" fill-opacity="0.72" stroke="#1E3A5F" stroke-width="2"/><text x="741.3" y="178.6" font-size="12" fill="#172033">Контроллер C-9</text><circle cx="552.4" cy="389.1" r="22.7" fill="#2F855A" fill-opacity="0.72" stroke="#1E3A5F" stroke-width="2"/><text x="583.1" y="394.1" font-size="12" fill="#172033">Насос Н-45</text><circle cx="780.0" cy="430.0" r="25.8" fill="#2F855A" fill-opacity="0.72" stroke="#1E3A5F" stroke-width="2"/><text x="813.8" y="435.0" font-size="12" fill="#172033">Редуктор R-8</text><circle cx="615.6" cy="237.6" r="14.5" fill="#2F855A" fill-opacity="0.72" stroke="#1E3A5F" stroke-width="2"/><text x="638.1" y="242.6" font-size="12" fill="#172033">Фильтр F-30</text><circle cx="534.6" cy="345.0" r="26.0" fill="#2F855A" fill-opacity="0.72" stroke="#1E3A5F" stroke-width="2"/><text x="568.6" y="350.0" font-size="12" fill="#172033">Электродвигатель E-55</text>

</svg>
