<svg xmlns="http://www.w3.org/2000/svg" width="1680" height="820" viewBox="0 0 1680 820">
  <defs><marker id="arrow" markerWidth="10" markerHeight="10" refX="9" refY="3" orient="auto"><path d="M0,0 L0,6 L9,3 z" fill="#1F4E78"/></marker></defs>
  <rect width="1680" height="820" fill="#FFFFFF"/>
  <text x="840" y="45" text-anchor="middle" font-size="24" font-weight="700" fill="#1F4E78">AS-IS: текущий процесс обработки заявки</text>
  <rect x="20" y="80" width="1640" height="120" fill="#F7FAFC" stroke="#B7C9DA"/><rect x="20" y="80" width="34" height="120" fill="#E6EEF6" stroke="#B7C9DA"/><text x="42" y="140" text-anchor="middle" transform="rotate(-90 42 140)" font-size="13" font-weight="700" fill="#1F2933">Инициатор</text><rect x="20" y="200" width="1640" height="170" fill="#EEF4FA" stroke="#B7C9DA"/><rect x="20" y="200" width="34" height="170" fill="#E6EEF6" stroke="#B7C9DA"/><text x="42" y="285" text-anchor="middle" transform="rotate(-90 42 285)" font-size="13" font-weight="700" fill="#1F2933">Менеджер</text><rect x="20" y="370" width="1640" height="140" fill="#F7FAFC" stroke="#B7C9DA"/><rect x="20" y="370" width="34" height="140" fill="#E6EEF6" stroke="#B7C9DA"/><text x="42" y="440" text-anchor="middle" transform="rotate(-90 42 440)" font-size="13" font-weight="700" fill="#1F2933">1С</text><rect x="20" y="510" width="1640" height="150" fill="#EEF4FA" stroke="#B7C9DA"/><rect x="20" y="510" width="34" height="150" fill="#E6EEF6" stroke="#B7C9DA"/><text x="42" y="585" text-anchor="middle" transform="rotate(-90 42 585)" font-size="13" font-weight="700" fill="#1F2933">Руководитель</text><rect x="20" y="660" width="1640" height="120" fill="#F7FAFC" stroke="#B7C9DA"/><rect x="20" y="660" width="34" height="120" fill="#E6EEF6" stroke="#B7C9DA"/><text x="42" y="720" text-anchor="middle" transform="rotate(-90 42 720)" font-size="13" font-weight="700" fill="#1F2933">Исполнитель</text>
  <path d="M 190 145 L 215 145 L 215 285 L 240 285" fill="none" stroke="#1F4E78" stroke-width="2" marker-end="url(#arrow)"/>
  <path d="M 410 285 L 460 285" fill="none" stroke="#1F4E78" stroke-width="2" marker-end="url(#arrow)"/>
  <path d="M 620 285 L 670 285" fill="none" stroke="#1F4E78" stroke-width="2" marker-end="url(#arrow)"/>
  <path d="M 730 240 L 730 210 L 740 210 L 740 185" fill="none" stroke="#1F4E78" stroke-width="2" marker-end="url(#arrow)"/><text x="760" y="215" text-anchor="middle" font-size="12" fill="#1F4E78">Нет</text>
  <path d="M 740 185 L 740 215 L 540 215 L 540 250" fill="none" stroke="#1F4E78" stroke-width="2" marker-end="url(#arrow)"/>
  <path d="M 790 285 L 825 285 L 825 440 L 860 440" fill="none" stroke="#1F4E78" stroke-width="2" marker-end="url(#arrow)"/><text x="835" y="365" text-anchor="middle" font-size="12" fill="#1F4E78">Да</text>
  <path d="M 950 475 L 950 515 L 1185 515 L 1185 555" fill="none" stroke="#1F4E78" stroke-width="2" marker-end="url(#arrow)"/>
  <path d="M 1270 590 L 1340 590" fill="none" stroke="#1F4E78" stroke-width="2" marker-end="url(#arrow)"/>
  <path d="M 1395 545 L 1395 500 L 1485 500 L 1485 335 L 1320 335 L 1320 285 L 1290 285" fill="none" stroke="#1F4E78" stroke-width="2" marker-end="url(#arrow)"/><text x="1500" y="490" text-anchor="middle" font-size="12" fill="#1F4E78">Нет</text>
  <path d="M 1120 285 L 1010 285 L 1010 345 L 640 345 L 620 285" fill="none" stroke="#1F4E78" stroke-width="2" marker-end="url(#arrow)"/>
  <path d="M 1450 590 L 1505 590 L 1505 680 L 1505 700" fill="none" stroke="#1F4E78" stroke-width="2" marker-end="url(#arrow)"/><text x="1520" y="650" text-anchor="middle" font-size="12" fill="#1F4E78">Да</text>
  <path d="M 1420 730 L 1330 730" fill="none" stroke="#1F4E78" stroke-width="2" marker-end="url(#arrow)"/>
  <path d="M 1160 730 L 1050 730" fill="none" stroke="#1F4E78" stroke-width="2" marker-end="url(#arrow)"/>
  <ellipse cx="130" cy="145" rx="60" ry="30" fill="#D9EAD3" stroke="#70AD47" stroke-width="2"/><text text-anchor="middle" font-size="13" fill="#1F2933"><tspan x="130" y="137">Заявка поступила по</tspan><tspan x="130" y="154">почте или в чат</tspan></text>
  <rect x="240" y="250" width="170" height="70" rx="10" fill="#FCE4D6" stroke="#F4B183" stroke-width="2"/><text text-anchor="middle" font-size="13" fill="#1F2933"><tspan x="325" y="277">Менеджер вручную</tspan><tspan x="325" y="294">принимает заявку</tspan></text>
  <rect x="460" y="250" width="160" height="70" rx="10" fill="#FCE4D6" stroke="#F4B183" stroke-width="2"/><text text-anchor="middle" font-size="13" fill="#1F2933"><tspan x="540" y="277">Проверка данных</tspan><tspan x="540" y="294">вручную</tspan></text>
  <polygon points="730,240 790,285 730,330 670,285" fill="#F2F2F2" stroke="#1F4E78" stroke-width="2"/><text text-anchor="middle" font-size="12" fill="#1F2933"><tspan x="730" y="285">Данных достаточно?</tspan></text>
  <rect x="650" y="115" width="180" height="70" rx="10" fill="#FCE4D6" stroke="#F4B183" stroke-width="2"/><text text-anchor="middle" font-size="13" fill="#1F2933"><tspan x="740" y="142">Запросить уточнение у</tspan><tspan x="740" y="159">инициатора</tspan></text>
  <rect x="860" y="405" width="180" height="70" rx="10" fill="#FCE4D6" stroke="#F4B183" stroke-width="2"/><text text-anchor="middle" font-size="13" fill="#1F2933"><tspan x="950" y="432">Создать документ в 1С</tspan><tspan x="950" y="449">вручную</tspan></text>
  <rect x="1100" y="555" width="170" height="70" rx="10" fill="#FCE4D6" stroke="#F4B183" stroke-width="2"/><text text-anchor="middle" font-size="13" fill="#1F2933"><tspan x="1185" y="582">Согласование вне</tspan><tspan x="1185" y="599">системы</tspan></text>
  <polygon points="1395,545 1450,590 1395,635 1340,590" fill="#F2F2F2" stroke="#1F4E78" stroke-width="2"/><text text-anchor="middle" font-size="12" fill="#1F2933"><tspan x="1395" y="590">Согласовано?</tspan></text>
  <rect x="1120" y="250" width="170" height="70" rx="10" fill="#FCE4D6" stroke="#F4B183" stroke-width="2"/><text text-anchor="middle" font-size="13" fill="#1F2933"><tspan x="1205" y="285">Вернуть на доработку</tspan></text>
  <rect x="1420" y="700" width="170" height="60" rx="10" fill="#FCE4D6" stroke="#F4B183" stroke-width="2"/><text text-anchor="middle" font-size="13" fill="#1F2933"><tspan x="1505" y="730">Передать исполнителю</tspan></text>
  <rect x="1160" y="700" width="170" height="60" rx="10" fill="#FCE4D6" stroke="#F4B183" stroke-width="2"/><text text-anchor="middle" font-size="13" fill="#1F2933"><tspan x="1245" y="722">Закрыть заявку и</tspan><tspan x="1245" y="739">статус вручную</tspan></text>
  <ellipse cx="990" cy="730" rx="60" ry="30" fill="#F4CCCC" stroke="#C00000" stroke-width="2"/><text text-anchor="middle" font-size="13" fill="#1F2933"><tspan x="990" y="730">Заявка закрыта</tspan></text>
  <rect x="330" y="95" width="210" height="80" rx="4" fill="#F4CCCC" stroke="#C00000" stroke-width="2"/><text text-anchor="middle" font-size="12" fill="#1F2933"><tspan x="435" y="119">Проблема: нет единого</tspan><tspan x="435" y="136">канала и обязательных</tspan><tspan x="435" y="153">полей</tspan></text>
  <rect x="1210" y="385" width="230" height="80" rx="4" fill="#F4CCCC" stroke="#C00000" stroke-width="2"/><text text-anchor="middle" font-size="12" fill="#1F2933"><tspan x="1325" y="409">Проблема: статусы и</tspan><tspan x="1325" y="426">сроки контролируются</tspan><tspan x="1325" y="443">вручную</tspan></text>
</svg>
