<svg xmlns="http://www.w3.org/2000/svg" width="1180" height="620" viewBox="0 0 1180 620">
  <rect width="1180" height="620" fill="#ffffff"/>
  <text x="590" y="52" text-anchor="middle" font-family="Arial, sans-serif" font-size="28" font-weight="700" fill="#1f4e78">Диаграмма вариантов использования</text>
  <rect x="280" y="95" width="620" height="460" rx="10" fill="#f7fafc" stroke="#b7c9da" stroke-width="2"/>
  <text x="590" y="128" text-anchor="middle" font-family="Arial, sans-serif" font-size="18" font-weight="700" fill="#1f2933">Обработка заявки в 1С</text>
  <g font-family="Arial, sans-serif" font-size="15" fill="#1f2933">
    <circle cx="120" cy="190" r="24" fill="#ddebf7" stroke="#5b9bd5" stroke-width="2"/>
    <path d="M120 214 L120 285 M85 245 L155 245 M120 285 L92 335 M120 285 L148 335" stroke="#1f2933" stroke-width="2" fill="none"/>
    <text x="120" y="365" text-anchor="middle">Менеджер продаж</text>
    <circle cx="1040" cy="190" r="24" fill="#f4cccc" stroke="#c00000" stroke-width="2"/>
    <path d="M1040 214 L1040 285 M1005 245 L1075 245 M1040 285 L1012 335 M1040 285 L1068 335" stroke="#1f2933" stroke-width="2" fill="none"/>
    <text x="1040" y="365" text-anchor="middle">Руководитель</text>
    <circle cx="1040" cy="430" r="24" fill="#d9ead3" stroke="#70ad47" stroke-width="2"/>
    <path d="M1040 454 L1040 525 M1005 485 L1075 485 M1040 525 L1012 575 M1040 525 L1068 575" stroke="#1f2933" stroke-width="2" fill="none"/>
    <text x="1040" y="602" text-anchor="middle">Администратор 1С</text>
  </g>
  <g font-family="Arial, sans-serif" font-size="15" fill="#1f2933">
    <ellipse cx="500" cy="185" rx="125" ry="36" fill="#ffffff" stroke="#5b9bd5" stroke-width="2"/>
    <text x="500" y="191" text-anchor="middle">Создать заявку</text>
    <ellipse cx="500" cy="280" rx="125" ry="36" fill="#ffffff" stroke="#5b9bd5" stroke-width="2"/>
    <text x="500" y="286" text-anchor="middle">Обновить статус</text>
    <ellipse cx="500" cy="375" rx="125" ry="36" fill="#ffffff" stroke="#5b9bd5" stroke-width="2"/>
    <text x="500" y="381" text-anchor="middle">Заполнить детали</text>
    <ellipse cx="720" cy="185" rx="125" ry="36" fill="#ffffff" stroke="#70ad47" stroke-width="2"/>
    <text x="720" y="191" text-anchor="middle">Согласовать заявку</text>
    <ellipse cx="720" cy="280" rx="125" ry="36" fill="#ffffff" stroke="#70ad47" stroke-width="2"/>
    <text x="720" y="286" text-anchor="middle">Смотреть отчет по срокам</text>
    <ellipse cx="720" cy="375" rx="125" ry="36" fill="#ffffff" stroke="#70ad47" stroke-width="2"/>
    <text x="720" y="381" text-anchor="middle">Настроить справочники</text>
  </g>
  <g fill="none" stroke="#1f4e78" stroke-width="2">
    <path d="M155 245 L375 185"/>
    <path d="M155 245 L375 280"/>
    <path d="M155 245 L375 375"/>
    <path d="M1005 245 L845 185"/>
    <path d="M1005 245 L845 280"/>
    <path d="M1005 485 L845 375"/>
  </g>
</svg>

